<svg width="157" height="22" viewBox="0 0 157 22" fill="none" xmlns="http://www.w3.org/2000/svg">
<g clip-path="url(#clip0_4_4)">
<path d="M93.293 0.777954C90.05 0.777954 86.88 3.58295 86.516 7.63595V1.11195H81.859V20.783H86.573V11.262C86.573 8.59495 88.552 4.83195 93.293 4.83195V0.777954ZM142.778 17.634V4.15695H145.509C149.15 4.15695 152.108 6.33095 152.108 10.787C152.108 15.243 149.15 17.634 145.509 17.634H142.778ZM138.113 20.786H146.078C150.97 20.786 157 17.743 157 10.787C157 3.93995 150.97 1.11395 146.078 1.11395H138.113V20.786ZM120.224 11.006C120.224 7.41895 122.158 4.48495 125.344 4.48495C128.416 4.48495 130.123 7.41895 130.123 11.005C130.123 14.592 128.416 17.527 125.344 17.527C122.158 17.527 120.224 14.592 120.224 11.006ZM115.445 11.223C115.445 17.092 118.631 21.222 123.637 21.222C127.278 21.222 129.44 18.94 130.578 15.244V20.787H135.242V1.11595H130.578V6.33195C129.554 2.85495 127.392 0.789954 123.979 0.789954C118.859 0.789954 115.445 5.24595 115.445 11.223ZM9.216 21.222C3.413 21.222 0 16.766 0 11.223C0 5.46295 3.755 0.789954 10.923 0.789954C18.318 0.789954 20.821 5.57195 20.935 8.28895H15.588C15.474 6.76695 14.108 4.48495 10.808 4.48495C7.282 4.48495 5.006 7.41895 5.006 11.005C5.006 14.592 7.282 17.527 10.809 17.527C13.995 17.527 15.36 15.136 15.929 12.745H10.809V10.788H21.552V20.788H16.84V14.484C16.499 16.766 15.02 21.222 9.217 21.222H9.216ZM31.108 21.22C26.671 21.22 23.94 18.395 23.94 12.743V1.11395H28.719V12.744C28.719 15.678 30.198 17.091 32.701 17.091C37.593 17.091 39.414 11.331 39.414 7.30895V1.11395H44.192V20.786H39.528V13.504C38.618 17.525 36.114 21.221 31.108 21.221V21.22ZM72.741 0.777954C68.664 0.777954 66.092 4.53995 65.253 8.01795C65.109 3.35795 62.709 0.777954 58.87 0.777954C55.552 0.777954 52.474 3.60395 51.675 8.07495V1.11295H47.017V20.785H51.735V13.733C51.735 11.984 52.498 4.80895 57.247 4.80895C60.324 4.80895 60.645 7.45995 60.645 11.084V20.785H65.361V13.733C65.361 11.984 66.155 4.80895 70.905 4.80895C73.979 4.80895 74.297 7.45995 74.297 11.084V20.785H79.019V9.14995C79.041 3.56795 76.977 0.779954 72.741 0.779954V0.777954ZM103.415 0.777954C97.306 0.777954 93.168 5.35295 93.168 11C93.168 17.221 97.104 21.22 103.415 21.22C109.523 21.22 113.735 16.646 113.735 11C113.735 4.77795 109.722 0.777954 103.415 0.777954ZM103.415 17.738C99.859 17.738 97.555 14.863 97.555 11C97.555 7.13595 99.867 4.25995 103.415 4.25995C106.962 4.25995 109.181 7.13595 109.181 11C109.181 14.863 106.96 17.738 103.415 17.738Z" fill="#F4F4F0"/>
</g>
<defs>
<clipPath id="clip0_4_4">
<rect width="157" height="22" fill="white"/>
</clipPath>
</defs>
</svg>
